solid 
   facet normal 0.000000e+00 -0.000000e+00 1.000000e+00
      outer loop
         vertex -5.000000e-01 5.000000e-01 5.000000e-01
         vertex 2.743009e-02 2.377545e-01 5.000000e-01
         vertex 5.000000e-01 5.000000e-01 5.000000e-01
      endloop
   endfacet
   facet normal 0.000000e+00 -0.000000e+00 1.000000e+00
      outer loop
         vertex 2.743009e-02 2.377545e-01 5.000000e-01
         vertex 5.858111e-02 2.490892e-01 5.000000e-01
         vertex 5.000000e-01 5.000000e-01 5.000000e-01
      endloop
   endfacet
   facet normal -0.000000e+00 0.000000e+00 1.000000e+00
      outer loop
         vertex 5.000000e-01 5.000000e-01 5.000000e-01
         vertex 2.000303e-01 2.473277e-01 5.000000e-01
         vertex 5.000000e-01 -5.000000e-01 5.000000e-01
      endloop
   endfacet
   facet normal -0.000000e+00 -0.000000e+00 1.000000e+00
      outer loop
         vertex 2.000303e-01 2.473277e-01 5.000000e-01
         vertex 2.013394e-01 2.429089e-01 5.000000e-01
         vertex 5.000000e-01 -5.000000e-01 5.000000e-01
      endloop
   endfacet
   facet normal 0.000000e+00 0.000000e+00 1.000000e+00
      outer loop
         vertex 5.000000e-01 -5.000000e-01 5.000000e-01
         vertex 1.476241e-02 -2.873465e-01 5.000000e-01
         vertex -5.000000e-01 -5.000000e-01 5.000000e-01
      endloop
   endfacet
   facet normal -0.000000e+00 0.000000e+00 1.000000e+00
      outer loop
         vertex 1.476241e-02 -2.873465e-01 5.000000e-01
         vertex 3.246464e-03 -2.895284e-01 5.000000e-01
         vertex -5.000000e-01 -5.000000e-01 5.000000e-01
      endloop
   endfacet
   facet normal 0.000000e+00 0.000000e+00 1.000000e+00
      outer loop
         vertex -5.000000e-01 -5.000000e-01 5.000000e-01
         vertex -2.037992e-01 -2.788625e-01 5.000000e-01
         vertex -5.000000e-01 5.000000e-01 5.000000e-01
      endloop
   endfacet
   facet normal 0.000000e+00 0.000000e+00 1.000000e+00
      outer loop
         vertex -2.037992e-01 -2.788625e-01 5.000000e-01
         vertex -2.043435e-01 -2.743632e-01 5.000000e-01
         vertex -5.000000e-01 5.000000e-01 5.000000e-01
      endloop
   endfacet
   facet normal 0.000000e+00 -0.000000e+00 1.000000e+00
      outer loop
         vertex -5.000000e-01 5.000000e-01 5.000000e-01
         vertex -5.101893e-02 1.676556e-01 5.000000e-01
         vertex -3.043777e-02 1.947276e-01 5.000000e-01
      endloop
   endfacet
   facet normal 0.000000e+00 0.000000e+00 1.000000e+00
      outer loop
         vertex -5.101893e-02 1.676556e-01 5.000000e-01
         vertex -5.000000e-01 5.000000e-01 5.000000e-01
         vertex -6.500780e-02 1.376496e-01 5.000000e-01
      endloop
   endfacet
   facet normal 0.000000e+00 0.000000e+00 1.000000e+00
      outer loop
         vertex -6.500780e-02 1.376496e-01 5.000000e-01
         vertex -5.000000e-01 5.000000e-01 5.000000e-01
         vertex -9.113540e-02 6.079645e-02 5.000000e-01
      endloop
   endfacet
   facet normal 0.000000e+00 -0.000000e+00 1.000000e+00
      outer loop
         vertex -5.000000e-01 5.000000e-01 5.000000e-01
         vertex -2.034593e-01 -2.696847e-01 5.000000e-01
         vertex -9.113540e-02 6.079645e-02 5.000000e-01
      endloop
   endfacet
   facet normal 0.000000e+00 0.000000e+00 1.000000e+00
      outer loop
         vertex -9.113540e-02 6.079645e-02 5.000000e-01
         vertex -2.034593e-01 -2.696847e-01 5.000000e-01
         vertex -9.754560e-02 3.078924e-02 5.000000e-01
      endloop
   endfacet
   facet normal 0.000000e+00 -0.000000e+00 1.000000e+00
      outer loop
         vertex -2.034593e-01 -2.696847e-01 5.000000e-01
         vertex -2.013073e-01 -2.650064e-01 5.000000e-01
         vertex -9.754560e-02 3.078924e-02 5.000000e-01
      endloop
   endfacet
   facet normal 0.000000e+00 0.000000e+00 1.000000e+00
      outer loop
         vertex -9.754560e-02 3.078924e-02 5.000000e-01
         vertex -2.013073e-01 -2.650064e-01 5.000000e-01
         vertex -9.538874e-02 3.772468e-03 5.000000e-01
      endloop
   endfacet
   facet normal 0.000000e+00 -0.000000e+00 1.000000e+00
      outer loop
         vertex -2.013073e-01 -2.650064e-01 5.000000e-01
         vertex -1.981034e-01 -2.605070e-01 5.000000e-01
         vertex -9.538874e-02 3.772468e-03 5.000000e-01
      endloop
   endfacet
   facet normal 0.000000e+00 0.000000e+00 1.000000e+00
      outer loop
         vertex -9.538874e-02 3.772468e-03 5.000000e-01
         vertex -1.981034e-01 -2.605070e-01 5.000000e-01
         vertex -8.466549e-02 -2.025286e-02 5.000000e-01
      endloop
   endfacet
   facet normal 0.000000e+00 -0.000000e+00 1.000000e+00
      outer loop
         vertex -1.981034e-01 -2.605070e-01 5.000000e-01
         vertex -1.938475e-01 -2.561868e-01 5.000000e-01
         vertex -8.466549e-02 -2.025286e-02 5.000000e-01
      endloop
   endfacet
   facet normal 0.000000e+00 0.000000e+00 1.000000e+00
      outer loop
         vertex -8.466549e-02 -2.025286e-02 5.000000e-01
         vertex -1.938475e-01 -2.561868e-01 5.000000e-01
         vertex -6.688161e-02 -3.902885e-02 5.000000e-01
      endloop
   endfacet
   facet normal 0.000000e+00 -0.000000e+00 1.000000e+00
      outer loop
         vertex -1.938475e-01 -2.561868e-01 5.000000e-01
         vertex -1.888339e-01 -2.526614e-01 5.000000e-01
         vertex -6.688161e-02 -3.902885e-02 5.000000e-01
      endloop
   endfacet
   facet normal 0.000000e+00 0.000000e+00 1.000000e+00
      outer loop
         vertex -6.688161e-02 -3.902885e-02 5.000000e-01
         vertex -1.888339e-01 -2.526614e-01 5.000000e-01
         vertex -4.354407e-02 -5.029431e-02 5.000000e-01
      endloop
   endfacet
   facet normal 0.000000e+00 -0.000000e+00 1.000000e+00
      outer loop
         vertex -1.888339e-01 -2.526614e-01 5.000000e-01
         vertex -1.833561e-01 -2.505460e-01 5.000000e-01
         vertex -4.354407e-02 -5.029431e-02 5.000000e-01
      endloop
   endfacet
   facet normal 0.000000e+00 0.000000e+00 1.000000e+00
      outer loop
         vertex -4.354407e-02 -5.029431e-02 5.000000e-01
         vertex -1.833561e-01 -2.505460e-01 5.000000e-01
         vertex -1.465428e-02 -5.404923e-02 5.000000e-01
      endloop
   endfacet
   facet normal 0.000000e+00 -0.000000e+00 1.000000e+00
      outer loop
         vertex -1.833561e-01 -2.505460e-01 5.000000e-01
         vertex -1.774144e-01 -2.498409e-01 5.000000e-01
         vertex -1.465428e-02 -5.404923e-02 5.000000e-01
      endloop
   endfacet
   facet normal 0.000000e+00 0.000000e+00 1.000000e+00
      outer loop
         vertex -1.465428e-02 -5.404923e-02 5.000000e-01
         vertex -1.774144e-01 -2.498409e-01 5.000000e-01
         vertex 6.298440e-02 -5.404923e-02 5.000000e-01
      endloop
   endfacet
   facet normal 0.000000e+00 -0.000000e+00 1.000000e+00
      outer loop
         vertex -1.774144e-01 -2.498409e-01 5.000000e-01
         vertex -3.574849e-03 -2.498409e-01 5.000000e-01
         vertex 6.298440e-02 -5.404923e-02 5.000000e-01
      endloop
   endfacet
   facet normal 0.000000e+00 0.000000e+00 1.000000e+00
      outer loop
         vertex -2.034593e-01 -2.696847e-01 5.000000e-01
         vertex -5.000000e-01 5.000000e-01 5.000000e-01
         vertex -2.043435e-01 -2.743632e-01 5.000000e-01
      endloop
   endfacet
   facet normal 0.000000e+00 0.000000e+00 1.000000e+00
      outer loop
         vertex -2.037992e-01 -2.788625e-01 5.000000e-01
         vertex -5.000000e-01 -5.000000e-01 5.000000e-01
         vertex -2.018263e-01 -2.831826e-01 5.000000e-01
      endloop
   endfacet
   facet normal 0.000000e+00 0.000000e+00 1.000000e+00
      outer loop
         vertex -2.018263e-01 -2.831826e-01 5.000000e-01
         vertex -5.000000e-01 -5.000000e-01 5.000000e-01
         vertex -1.988107e-01 -2.867081e-01 5.000000e-01
      endloop
   endfacet
   facet normal 0.000000e+00 0.000000e+00 1.000000e+00
      outer loop
         vertex -5.000000e-01 -5.000000e-01 5.000000e-01
         vertex -1.951381e-01 -2.888233e-01 5.000000e-01
         vertex -1.988107e-01 -2.867081e-01 5.000000e-01
      endloop
   endfacet
   facet normal 0.000000e+00 0.000000e+00 1.000000e+00
      outer loop
         vertex -1.908089e-01 -2.895284e-01 5.000000e-01
         vertex -5.000000e-01 -5.000000e-01 5.000000e-01
         vertex 3.246464e-03 -2.895284e-01 5.000000e-01
      endloop
   endfacet
   facet normal 0.000000e+00 0.000000e+00 1.000000e+00
      outer loop
         vertex -1.951381e-01 -2.888233e-01 5.000000e-01
         vertex -5.000000e-01 -5.000000e-01 5.000000e-01
         vertex -1.908089e-01 -2.895284e-01 5.000000e-01
      endloop
   endfacet
   facet normal 0.000000e+00 0.000000e+00 1.000000e+00
      outer loop
         vertex 1.476241e-02 -2.873465e-01 5.000000e-01
         vertex 5.000000e-01 -5.000000e-01 5.000000e-01
         vertex 2.345789e-02 -2.808006e-01 5.000000e-01
      endloop
   endfacet
   facet normal 0.000000e+00 0.000000e+00 1.000000e+00
      outer loop
         vertex 2.345789e-02 -2.808006e-01 5.000000e-01
         vertex 5.000000e-01 -5.000000e-01 5.000000e-01
         vertex 2.933272e-02 -2.698914e-01 5.000000e-01
      endloop
   endfacet
   facet normal 0.000000e+00 0.000000e+00 1.000000e+00
      outer loop
         vertex 5.000000e-01 -5.000000e-01 5.000000e-01
         vertex 2.002370e-01 2.330237e-01 5.000000e-01
         vertex 2.933272e-02 -2.698914e-01 5.000000e-01
      endloop
   endfacet
   facet normal 0.000000e+00 0.000000e+00 1.000000e+00
      outer loop
         vertex 2.933272e-02 -2.698914e-01 5.000000e-01
         vertex 2.002370e-01 2.330237e-01 5.000000e-01
         vertex 1.094932e-01 -3.399879e-02 5.000000e-01
      endloop
   endfacet
   facet normal -0.000000e+00 0.000000e+00 1.000000e+00
      outer loop
         vertex 2.002370e-01 2.330237e-01 5.000000e-01
         vertex 1.985811e-01 2.297303e-01 5.000000e-01
         vertex 1.094932e-01 -3.399879e-02 5.000000e-01
      endloop
   endfacet
   facet normal 0.000000e+00 0.000000e+00 1.000000e+00
      outer loop
         vertex 1.094932e-01 -3.399879e-02 5.000000e-01
         vertex 1.985811e-01 2.297303e-01 5.000000e-01
         vertex 1.110458e-01 -2.308919e-02 5.000000e-01
      endloop
   endfacet
   facet normal -0.000000e+00 0.000000e+00 1.000000e+00
      outer loop
         vertex 1.985811e-01 2.297303e-01 5.000000e-01
         vertex 1.955977e-01 2.256926e-01 5.000000e-01
         vertex 1.110458e-01 -2.308919e-02 5.000000e-01
      endloop
   endfacet
   facet normal 0.000000e+00 0.000000e+00 1.000000e+00
      outer loop
         vertex 1.110458e-01 -2.308919e-02 5.000000e-01
         vertex 1.955977e-01 2.256926e-01 5.000000e-01
         vertex 1.068288e-01 -1.654350e-02 5.000000e-01
      endloop
   endfacet
   facet normal -0.000000e+00 0.000000e+00 1.000000e+00
      outer loop
         vertex 1.955977e-01 2.256926e-01 5.000000e-01
         vertex 1.912866e-01 2.209107e-01 5.000000e-01
         vertex 1.068288e-01 -1.654350e-02 5.000000e-01
      endloop
   endfacet
   facet normal 0.000000e+00 0.000000e+00 1.000000e+00
      outer loop
         vertex 1.068288e-01 -1.654350e-02 5.000000e-01
         vertex 1.912866e-01 2.209107e-01 5.000000e-01
         vertex 9.684280e-02 -1.436173e-02 5.000000e-01
      endloop
   endfacet
   facet normal -0.000000e+00 0.000000e+00 1.000000e+00
      outer loop
         vertex 1.912866e-01 2.209107e-01 5.000000e-01
         vertex 1.860709e-01 2.166159e-01 5.000000e-01
         vertex 9.684280e-02 -1.436173e-02 5.000000e-01
      endloop
   endfacet
   facet normal 0.000000e+00 0.000000e+00 1.000000e+00
      outer loop
         vertex 9.684280e-02 -1.436173e-02 5.000000e-01
         vertex 1.860709e-01 2.166159e-01 5.000000e-01
         vertex -1.435218e-04 -1.436173e-02 5.000000e-01
      endloop
   endfacet
   facet normal -0.000000e+00 0.000000e+00 1.000000e+00
      outer loop
         vertex 1.860709e-01 2.166159e-01 5.000000e-01
         vertex 1.803727e-01 2.140389e-01 5.000000e-01
         vertex -1.435218e-04 -1.436173e-02 5.000000e-01
      endloop
   endfacet
   facet normal 0.000000e+00 0.000000e+00 1.000000e+00
      outer loop
         vertex -1.435218e-04 -1.436173e-02 5.000000e-01
         vertex 1.803727e-01 2.140389e-01 5.000000e-01
         vertex -1.959939e-02 -1.191335e-02 5.000000e-01
      endloop
   endfacet
   facet normal -0.000000e+00 0.000000e+00 1.000000e+00
      outer loop
         vertex 1.803727e-01 2.140389e-01 5.000000e-01
         vertex 1.741921e-01 2.131799e-01 5.000000e-01
         vertex -1.959939e-02 -1.191335e-02 5.000000e-01
      endloop
   endfacet
   facet normal 0.000000e+00 0.000000e+00 1.000000e+00
      outer loop
         vertex -1.959939e-02 -1.191335e-02 5.000000e-01
         vertex 1.741921e-01 2.131799e-01 5.000000e-01
         vertex -3.524716e-02 -4.568194e-03 5.000000e-01
      endloop
   endfacet
   facet normal -0.000000e+00 0.000000e+00 1.000000e+00
      outer loop
         vertex 1.741921e-01 2.131799e-01 5.000000e-01
         vertex 7.720577e-02 2.131799e-01 5.000000e-01
         vertex -3.524716e-02 -4.568194e-03 5.000000e-01
      endloop
   endfacet
   facet normal 0.000000e+00 0.000000e+00 1.000000e+00
      outer loop
         vertex -3.524716e-02 -4.568194e-03 5.000000e-01
         vertex 7.720577e-02 2.131799e-01 5.000000e-01
         vertex -4.708638e-02 7.673070e-03 5.000000e-01
      endloop
   endfacet
   facet normal -0.000000e+00 0.000000e+00 1.000000e+00
      outer loop
         vertex 7.720577e-02 2.131799e-01 5.000000e-01
         vertex 5.608337e-02 2.107318e-01 5.000000e-01
         vertex -4.708638e-02 7.673070e-03 5.000000e-01
      endloop
   endfacet
   facet normal 0.000000e+00 0.000000e+00 1.000000e+00
      outer loop
         vertex -4.708638e-02 7.673070e-03 5.000000e-01
         vertex 5.608337e-02 2.107318e-01 5.000000e-01
         vertex -5.417647e-02 2.341971e-02 5.000000e-01
      endloop
   endfacet
   facet normal -0.000000e+00 0.000000e+00 1.000000e+00
      outer loop
         vertex 5.608337e-02 2.107318e-01 5.000000e-01
         vertex 3.543314e-02 2.033868e-01 5.000000e-01
         vertex -5.417647e-02 2.341971e-02 5.000000e-01
      endloop
   endfacet
   facet normal 0.000000e+00 0.000000e+00 1.000000e+00
      outer loop
         vertex -5.417647e-02 2.341971e-02 5.000000e-01
         vertex 3.543314e-02 2.033868e-01 5.000000e-01
         vertex -5.557508e-02 4.127941e-02 5.000000e-01
      endloop
   endfacet
   facet normal -0.000000e+00 0.000000e+00 1.000000e+00
      outer loop
         vertex 3.543314e-02 2.033868e-01 5.000000e-01
         vertex 1.525605e-02 1.911451e-01 5.000000e-01
         vertex -5.557508e-02 4.127941e-02 5.000000e-01
      endloop
   endfacet
   facet normal 0.000000e+00 0.000000e+00 1.000000e+00
      outer loop
         vertex -5.557508e-02 4.127941e-02 5.000000e-01
         vertex 1.525605e-02 1.911451e-01 5.000000e-01
         vertex -5.128253e-02 6.125120e-02 5.000000e-01
      endloop
   endfacet
   facet normal -0.000000e+00 0.000000e+00 1.000000e+00
      outer loop
         vertex 1.525605e-02 1.911451e-01 5.000000e-01
         vertex -2.563819e-03 1.753579e-01 5.000000e-01
         vertex -5.128253e-02 6.125120e-02 5.000000e-01
      endloop
   endfacet
   facet normal 0.000000e+00 0.000000e+00 1.000000e+00
      outer loop
         vertex -5.128253e-02 6.125120e-02 5.000000e-01
         vertex -2.563819e-03 1.753579e-01 5.000000e-01
         vertex -2.548567e-02 1.371949e-01 5.000000e-01
      endloop
   endfacet
   facet normal -0.000000e+00 0.000000e+00 1.000000e+00
      outer loop
         vertex -2.563819e-03 1.753579e-01 5.000000e-01
         vertex -1.614469e-02 1.573742e-01 5.000000e-01
         vertex -2.548567e-02 1.371949e-01 5.000000e-01
      endloop
   endfacet
   facet normal 0.000000e+00 0.000000e+00 1.000000e+00
      outer loop
         vertex 2.002370e-01 2.330237e-01 5.000000e-01
         vertex 5.000000e-01 -5.000000e-01 5.000000e-01
         vertex 2.014083e-01 2.381409e-01 5.000000e-01
      endloop
   endfacet
   facet normal 0.000000e+00 0.000000e+00 1.000000e+00
      outer loop
         vertex 5.000000e-01 -5.000000e-01 5.000000e-01
         vertex 2.013394e-01 2.429089e-01 5.000000e-01
         vertex 2.014083e-01 2.381409e-01 5.000000e-01
      endloop
   endfacet
   facet normal 0.000000e+00 0.000000e+00 1.000000e+00
      outer loop
         vertex 2.000303e-01 2.473277e-01 5.000000e-01
         vertex 5.000000e-01 5.000000e-01 5.000000e-01
         vertex 1.970858e-01 2.504054e-01 5.000000e-01
      endloop
   endfacet
   facet normal -0.000000e+00 0.000000e+00 1.000000e+00
      outer loop
         vertex 5.000000e-01 5.000000e-01 5.000000e-01
         vertex 1.929379e-01 2.522520e-01 5.000000e-01
         vertex 1.970858e-01 2.504054e-01 5.000000e-01
      endloop
   endfacet
   facet normal 0.000000e+00 0.000000e+00 1.000000e+00
      outer loop
         vertex 9.018689e-02 2.528674e-01 5.000000e-01
         vertex 5.000000e-01 5.000000e-01 5.000000e-01
         vertex 5.858111e-02 2.490892e-01 5.000000e-01
      endloop
   endfacet
   facet normal 0.000000e+00 0.000000e+00 1.000000e+00
      outer loop
         vertex 1.875866e-01 2.528674e-01 5.000000e-01
         vertex 5.000000e-01 5.000000e-01 5.000000e-01
         vertex 9.018689e-02 2.528674e-01 5.000000e-01
      endloop
   endfacet
   facet normal 0.000000e+00 0.000000e+00 1.000000e+00
      outer loop
         vertex 1.929379e-01 2.522520e-01 5.000000e-01
         vertex 5.000000e-01 5.000000e-01 5.000000e-01
         vertex 1.875866e-01 2.528674e-01 5.000000e-01
      endloop
   endfacet
   facet normal 0.000000e+00 0.000000e+00 1.000000e+00
      outer loop
         vertex 2.743009e-02 2.377545e-01 5.000000e-01
         vertex -5.000000e-01 5.000000e-01 5.000000e-01
         vertex -3.264786e-03 2.188643e-01 5.000000e-01
      endloop
   endfacet
   facet normal 0.000000e+00 -0.000000e+00 1.000000e+00
      outer loop
         vertex -5.000000e-01 5.000000e-01 5.000000e-01
         vertex -3.043777e-02 1.947276e-01 5.000000e-01
         vertex -3.264786e-03 2.188643e-01 5.000000e-01
      endloop
   endfacet
   facet normal -1.186974e-01 9.929305e-01 0.000000e+00
      outer loop
         vertex 9.018689e-02 2.528674e-01 5.500000e-01
         vertex 9.018689e-02 2.528674e-01 5.000000e-01
         vertex 5.858111e-02 2.490892e-01 5.000000e-01
      endloop
   endfacet
   facet normal -3.419316e-01 9.397249e-01 0.000000e+00
      outer loop
         vertex 5.858111e-02 2.490892e-01 5.000000e-01
         vertex 2.743009e-02 2.377545e-01 5.000000e-01
         vertex 2.743009e-02 2.377545e-01 5.500000e-01
      endloop
   endfacet
   facet normal -5.241179e-01 8.516457e-01 0.000000e+00
      outer loop
         vertex 2.743009e-02 2.377545e-01 5.000000e-01
         vertex -3.264786e-03 2.188643e-01 5.000000e-01
         vertex -3.264786e-03 2.188643e-01 5.500000e-01
      endloop
   endfacet
   facet normal -5.241179e-01 8.516457e-01 0.000000e+00
      outer loop
         vertex -3.264786e-03 2.188643e-01 5.500000e-01
         vertex 2.743009e-02 2.377545e-01 5.500000e-01
         vertex 2.743009e-02 2.377545e-01 5.000000e-01
      endloop
   endfacet
   facet normal -3.419316e-01 9.397249e-01 0.000000e+00
      outer loop
         vertex 2.743009e-02 2.377545e-01 5.500000e-01
         vertex 5.858111e-02 2.490892e-01 5.500000e-01
         vertex 5.858111e-02 2.490892e-01 5.000000e-01
      endloop
   endfacet
   facet normal -1.186974e-01 9.929305e-01 0.000000e+00
      outer loop
         vertex 5.858111e-02 2.490892e-01 5.500000e-01
         vertex 9.018689e-02 2.528674e-01 5.500000e-01
         vertex 5.858111e-02 2.490892e-01 5.000000e-01
      endloop
   endfacet
   facet normal 0.000000e+00 1.000000e+00 -0.000000e+00
      outer loop
         vertex 1.875866e-01 2.528674e-01 5.500000e-01
         vertex 1.875866e-01 2.528674e-01 5.000000e-01
         vertex 9.018689e-02 2.528674e-01 5.000000e-01
      endloop
   endfacet
   facet normal 0.000000e+00 1.000000e+00 0.000000e+00
      outer loop
         vertex 1.875866e-01 2.528674e-01 5.500000e-01
         vertex 9.018689e-02 2.528674e-01 5.000000e-01
         vertex 9.018689e-02 2.528674e-01 5.500000e-01
      endloop
   endfacet
   facet normal 7.225686e-01 6.912992e-01 -0.000000e+00
      outer loop
         vertex 2.000303e-01 2.473277e-01 5.500000e-01
         vertex 2.000303e-01 2.473277e-01 5.000000e-01
         vertex 1.970858e-01 2.504054e-01 5.000000e-01
      endloop
   endfacet
   facet normal 4.066969e-01 9.135632e-01 -0.000000e+00
      outer loop
         vertex 1.970858e-01 2.504054e-01 5.000000e-01
         vertex 1.929379e-01 2.522520e-01 5.000000e-01
         vertex 1.929379e-01 2.522520e-01 5.500000e-01
      endloop
   endfacet
   facet normal 1.142628e-01 9.934506e-01 -0.000000e+00
      outer loop
         vertex 1.929379e-01 2.522520e-01 5.000000e-01
         vertex 1.875866e-01 2.528674e-01 5.000000e-01
         vertex 1.875866e-01 2.528674e-01 5.500000e-01
      endloop
   endfacet
   facet normal 1.142628e-01 9.934506e-01 0.000000e+00
      outer loop
         vertex 1.875866e-01 2.528674e-01 5.500000e-01
         vertex 1.929379e-01 2.522520e-01 5.500000e-01
         vertex 1.929379e-01 2.522520e-01 5.000000e-01
      endloop
   endfacet
   facet normal 4.066969e-01 9.135632e-01 0.000000e+00
      outer loop
         vertex 1.929379e-01 2.522520e-01 5.500000e-01
         vertex 1.970858e-01 2.504054e-01 5.500000e-01
         vertex 1.970858e-01 2.504054e-01 5.000000e-01
      endloop
   endfacet
   facet normal 7.225686e-01 6.912992e-01 0.000000e+00
      outer loop
         vertex 1.970858e-01 2.504054e-01 5.500000e-01
         vertex 2.000303e-01 2.473277e-01 5.500000e-01
         vertex 1.970858e-01 2.504054e-01 5.000000e-01
      endloop
   endfacet
   facet normal 9.747885e-01 -2.231310e-01 0.000000e+00
      outer loop
         vertex 2.002370e-01 2.330237e-01 5.500000e-01
         vertex 2.002370e-01 2.330237e-01 5.000000e-01
         vertex 2.014083e-01 2.381409e-01 5.000000e-01
      endloop
   endfacet
   facet normal 9.998955e-01 1.445560e-02 -0.000000e+00
      outer loop
         vertex 2.014083e-01 2.381409e-01 5.000000e-01
         vertex 2.013394e-01 2.429089e-01 5.000000e-01
         vertex 2.013394e-01 2.429089e-01 5.500000e-01
      endloop
   endfacet
   facet normal 9.588073e-01 2.840574e-01 -0.000000e+00
      outer loop
         vertex 2.013394e-01 2.429089e-01 5.000000e-01
         vertex 2.000303e-01 2.473277e-01 5.000000e-01
         vertex 2.000303e-01 2.473277e-01 5.500000e-01
      endloop
   endfacet
   facet normal 9.588073e-01 2.840574e-01 0.000000e+00
      outer loop
         vertex 2.000303e-01 2.473277e-01 5.500000e-01
         vertex 2.013394e-01 2.429089e-01 5.500000e-01
         vertex 2.013394e-01 2.429089e-01 5.000000e-01
      endloop
   endfacet
   facet normal 9.998955e-01 1.445560e-02 0.000000e+00
      outer loop
         vertex 2.013394e-01 2.429089e-01 5.500000e-01
         vertex 2.014083e-01 2.381409e-01 5.500000e-01
         vertex 2.014083e-01 2.381409e-01 5.000000e-01
      endloop
   endfacet
   facet normal 9.747885e-01 -2.231310e-01 0.000000e+00
      outer loop
         vertex 2.014083e-01 2.381409e-01 5.500000e-01
         vertex 2.002370e-01 2.330237e-01 5.500000e-01
         vertex 2.014083e-01 2.381409e-01 5.000000e-01
      endloop
   endfacet
   facet normal 7.427248e-01 -6.695968e-01 0.000000e+00
      outer loop
         vertex 1.912866e-01 2.209107e-01 5.500000e-01
         vertex 1.912866e-01 2.209107e-01 5.000000e-01
         vertex 1.955977e-01 2.256926e-01 5.000000e-01
      endloop
   endfacet
   facet normal 8.042623e-01 -5.942745e-01 0.000000e+00
      outer loop
         vertex 1.955977e-01 2.256926e-01 5.000000e-01
         vertex 1.985811e-01 2.297303e-01 5.000000e-01
         vertex 1.985811e-01 2.297303e-01 5.500000e-01
      endloop
   endfacet
   facet normal 8.934289e-01 -4.492046e-01 0.000000e+00
      outer loop
         vertex 1.985811e-01 2.297303e-01 5.000000e-01
         vertex 2.002370e-01 2.330237e-01 5.000000e-01
         vertex 2.002370e-01 2.330237e-01 5.500000e-01
      endloop
   endfacet
   facet normal 8.934289e-01 -4.492046e-01 0.000000e+00
      outer loop
         vertex 2.002370e-01 2.330237e-01 5.500000e-01
         vertex 1.985811e-01 2.297303e-01 5.500000e-01
         vertex 1.985811e-01 2.297303e-01 5.000000e-01
      endloop
   endfacet
   facet normal 8.042623e-01 -5.942745e-01 0.000000e+00
      outer loop
         vertex 1.985811e-01 2.297303e-01 5.500000e-01
         vertex 1.955977e-01 2.256926e-01 5.500000e-01
         vertex 1.955977e-01 2.256926e-01 5.000000e-01
      endloop
   endfacet
   facet normal 7.427248e-01 -6.695968e-01 0.000000e+00
      outer loop
         vertex 1.955977e-01 2.256926e-01 5.500000e-01
         vertex 1.912866e-01 2.209107e-01 5.500000e-01
         vertex 1.955977e-01 2.256926e-01 5.000000e-01
      endloop
   endfacet
   facet normal 1.376616e-01 -9.904793e-01 0.000000e+00
      outer loop
         vertex 1.741921e-01 2.131799e-01 5.500000e-01
         vertex 1.741921e-01 2.131799e-01 5.000000e-01
         vertex 1.803727e-01 2.140389e-01 5.000000e-01
      endloop
   endfacet
   facet normal 4.120653e-01 -9.111543e-01 0.000000e+00
      outer loop
         vertex 1.803727e-01 2.140389e-01 5.000000e-01
         vertex 1.860709e-01 2.166159e-01 5.000000e-01
         vertex 1.860709e-01 2.166159e-01 5.500000e-01
      endloop
   endfacet
   facet normal 6.356629e-01 -7.719668e-01 0.000000e+00
      outer loop
         vertex 1.860709e-01 2.166159e-01 5.000000e-01
         vertex 1.912866e-01 2.209107e-01 5.000000e-01
         vertex 1.912866e-01 2.209107e-01 5.500000e-01
      endloop
   endfacet
   facet normal 6.356629e-01 -7.719668e-01 0.000000e+00
      outer loop
         vertex 1.912866e-01 2.209107e-01 5.500000e-01
         vertex 1.860709e-01 2.166159e-01 5.500000e-01
         vertex 1.860709e-01 2.166159e-01 5.000000e-01
      endloop
   endfacet
   facet normal 4.120653e-01 -9.111543e-01 0.000000e+00
      outer loop
         vertex 1.860709e-01 2.166159e-01 5.500000e-01
         vertex 1.803727e-01 2.140389e-01 5.500000e-01
         vertex 1.803727e-01 2.140389e-01 5.000000e-01
      endloop
   endfacet
   facet normal 1.376616e-01 -9.904793e-01 0.000000e+00
      outer loop
         vertex 1.803727e-01 2.140389e-01 5.500000e-01
         vertex 1.741921e-01 2.131799e-01 5.500000e-01
         vertex 1.803727e-01 2.140389e-01 5.000000e-01
      endloop
   endfacet
   facet normal 0.000000e+00 -1.000000e+00 0.000000e+00
      outer loop
         vertex 7.720577e-02 2.131799e-01 5.500000e-01
         vertex 7.720577e-02 2.131799e-01 5.000000e-01
         vertex 1.741921e-01 2.131799e-01 5.000000e-01
      endloop
   endfacet
   facet normal 0.000000e+00 -1.000000e+00 0.000000e+00
      outer loop
         vertex 7.720577e-02 2.131799e-01 5.500000e-01
         vertex 1.741921e-01 2.131799e-01 5.000000e-01
         vertex 1.741921e-01 2.131799e-01 5.500000e-01
      endloop
   endfacet
   facet normal 5.187102e-01 -8.549501e-01 0.000000e+00
      outer loop
         vertex 1.525605e-02 1.911451e-01 5.500000e-01
         vertex 1.525605e-02 1.911451e-01 5.000000e-01
         vertex 3.543314e-02 2.033868e-01 5.000000e-01
      endloop
   endfacet
   facet normal 3.351167e-01 -9.421766e-01 0.000000e+00
      outer loop
         vertex 3.543314e-02 2.033868e-01 5.000000e-01
         vertex 5.608337e-02 2.107318e-01 5.000000e-01
         vertex 5.608337e-02 2.107318e-01 5.500000e-01
      endloop
   endfacet
   facet normal 1.151333e-01 -9.933501e-01 0.000000e+00
      outer loop
         vertex 5.608337e-02 2.107318e-01 5.000000e-01
         vertex 7.720577e-02 2.131799e-01 5.000000e-01
         vertex 7.720577e-02 2.131799e-01 5.500000e-01
      endloop
   endfacet
   facet normal 1.151333e-01 -9.933501e-01 0.000000e+00
      outer loop
         vertex 7.720577e-02 2.131799e-01 5.500000e-01
         vertex 5.608337e-02 2.107318e-01 5.500000e-01
         vertex 5.608337e-02 2.107318e-01 5.000000e-01
      endloop
   endfacet
   facet normal 3.351167e-01 -9.421766e-01 0.000000e+00
      outer loop
         vertex 5.608337e-02 2.107318e-01 5.500000e-01
         vertex 3.543314e-02 2.033868e-01 5.500000e-01
         vertex 3.543314e-02 2.033868e-01 5.000000e-01
      endloop
   endfacet
   facet normal 5.187102e-01 -8.549501e-01 0.000000e+00
      outer loop
         vertex 3.543314e-02 2.033868e-01 5.500000e-01
         vertex 1.525605e-02 1.911451e-01 5.500000e-01
         vertex 3.543314e-02 2.033868e-01 5.000000e-01
      endloop
   endfacet
   facet normal 9.074895e-01 -4.200748e-01 0.000000e+00
      outer loop
         vertex -2.548567e-02 1.371949e-01 5.500000e-01
         vertex -2.548567e-02 1.371949e-01 5.000000e-01
         vertex -1.614469e-02 1.573742e-01 5.000000e-01
      endloop
   endfacet
   facet normal 7.980116e-01 -6.026421e-01 0.000000e+00
      outer loop
         vertex -1.614469e-02 1.573742e-01 5.000000e-01
         vertex -2.563819e-03 1.753579e-01 5.000000e-01
         vertex -2.563819e-03 1.753579e-01 5.500000e-01
      endloop
   endfacet
   facet normal 6.631275e-01 -7.485065e-01 0.000000e+00
      outer loop
         vertex -2.563819e-03 1.753579e-01 5.000000e-01
         vertex 1.525605e-02 1.911451e-01 5.000000e-01
         vertex 1.525605e-02 1.911451e-01 5.500000e-01
      endloop
   endfacet
   facet normal 6.631275e-01 -7.485065e-01 0.000000e+00
      outer loop
         vertex 1.525605e-02 1.911451e-01 5.500000e-01
         vertex -2.563819e-03 1.753579e-01 5.500000e-01
         vertex -2.563819e-03 1.753579e-01 5.000000e-01
      endloop
   endfacet
   facet normal 7.980116e-01 -6.026421e-01 0.000000e+00
      outer loop
         vertex -2.563819e-03 1.753579e-01 5.500000e-01
         vertex -1.614469e-02 1.573742e-01 5.500000e-01
         vertex -1.614469e-02 1.573742e-01 5.000000e-01
      endloop
   endfacet
   facet normal 9.074895e-01 -4.200748e-01 0.000000e+00
      outer loop
         vertex -1.614469e-02 1.573742e-01 5.500000e-01
         vertex -2.548567e-02 1.371949e-01 5.500000e-01
         vertex -1.614469e-02 1.573742e-01 5.000000e-01
      endloop
   endfacet
   facet normal 9.468638e-01 -3.216347e-01 0.000000e+00
      outer loop
         vertex -5.128253e-02 6.125120e-02 5.500000e-01
         vertex -5.128253e-02 6.125120e-02 5.000000e-01
         vertex -2.548567e-02 1.371949e-01 5.000000e-01
      endloop
   endfacet
   facet normal 9.468638e-01 -3.216347e-01 0.000000e+00
      outer loop
         vertex -5.128253e-02 6.125120e-02 5.500000e-01
         vertex -2.548567e-02 1.371949e-01 5.000000e-01
         vertex -2.548567e-02 1.371949e-01 5.500000e-01
      endloop
   endfacet
   facet normal 9.118327e-01 4.105619e-01 -0.000000e+00
      outer loop
         vertex -4.708638e-02 7.673070e-03 5.500000e-01
         vertex -4.708638e-02 7.673070e-03 5.000000e-01
         vertex -5.417647e-02 2.341971e-02 5.000000e-01
      endloop
   endfacet
   facet normal 9.969477e-01 7.807184e-02 -0.000000e+00
      outer loop
         vertex -5.417647e-02 2.341971e-02 5.000000e-01
         vertex -5.557508e-02 4.127941e-02 5.000000e-01
         vertex -5.557508e-02 4.127941e-02 5.500000e-01
      endloop
   endfacet
   facet normal 9.776731e-01 -2.101315e-01 0.000000e+00
      outer loop
         vertex -5.557508e-02 4.127941e-02 5.000000e-01
         vertex -5.128253e-02 6.125120e-02 5.000000e-01
         vertex -5.128253e-02 6.125120e-02 5.500000e-01
      endloop
   endfacet
   facet normal 9.776731e-01 -2.101315e-01 0.000000e+00
      outer loop
         vertex -5.128253e-02 6.125120e-02 5.500000e-01
         vertex -5.557508e-02 4.127941e-02 5.500000e-01
         vertex -5.557508e-02 4.127941e-02 5.000000e-01
      endloop
   endfacet
   facet normal 9.969477e-01 7.807184e-02 0.000000e+00
      outer loop
         vertex -5.557508e-02 4.127941e-02 5.500000e-01
         vertex -5.417647e-02 2.341971e-02 5.500000e-01
         vertex -5.417647e-02 2.341971e-02 5.000000e-01
      endloop
   endfacet
   facet normal 9.118327e-01 4.105619e-01 0.000000e+00
      outer loop
         vertex -5.417647e-02 2.341971e-02 5.500000e-01
         vertex -4.708638e-02 7.673070e-03 5.500000e-01
         vertex -5.417647e-02 2.341971e-02 5.000000e-01
      endloop
   endfacet
   facet normal 1.248582e-01 9.921746e-01 -0.000000e+00
      outer loop
         vertex -1.435218e-04 -1.436173e-02 5.500000e-01
         vertex -1.435218e-04 -1.436173e-02 5.000000e-01
         vertex -1.959939e-02 -1.191335e-02 5.000000e-01
      endloop
   endfacet
   facet normal 4.249206e-01 9.052306e-01 -0.000000e+00
      outer loop
         vertex -1.959939e-02 -1.191335e-02 5.000000e-01
         vertex -3.524716e-02 -4.568194e-03 5.000000e-01
         vertex -3.524716e-02 -4.568194e-03 5.500000e-01
      endloop
   endfacet
   facet normal 7.188122e-01 6.952043e-01 -0.000000e+00
      outer loop
         vertex -3.524716e-02 -4.568194e-03 5.000000e-01
         vertex -4.708638e-02 7.673070e-03 5.000000e-01
         vertex -4.708638e-02 7.673070e-03 5.500000e-01
      endloop
   endfacet
   facet normal 7.188122e-01 6.952043e-01 0.000000e+00
      outer loop
         vertex -4.708638e-02 7.673070e-03 5.500000e-01
         vertex -3.524716e-02 -4.568194e-03 5.500000e-01
         vertex -3.524716e-02 -4.568194e-03 5.000000e-01
      endloop
   endfacet
   facet normal 4.249206e-01 9.052306e-01 0.000000e+00
      outer loop
         vertex -3.524716e-02 -4.568194e-03 5.500000e-01
         vertex -1.959939e-02 -1.191335e-02 5.500000e-01
         vertex -1.959939e-02 -1.191335e-02 5.000000e-01
      endloop
   endfacet
   facet normal 1.248582e-01 9.921746e-01 0.000000e+00
      outer loop
         vertex -1.959939e-02 -1.191335e-02 5.500000e-01
         vertex -1.435218e-04 -1.436173e-02 5.500000e-01
         vertex -1.959939e-02 -1.191335e-02 5.000000e-01
      endloop
   endfacet
   facet normal 0.000000e+00 1.000000e+00 -0.000000e+00
      outer loop
         vertex 9.684280e-02 -1.436173e-02 5.500000e-01
         vertex 9.684280e-02 -1.436173e-02 5.000000e-01
         vertex -1.435218e-04 -1.436173e-02 5.000000e-01
      endloop
   endfacet
   facet normal 0.000000e+00 1.000000e+00 0.000000e+00
      outer loop
         vertex 9.684280e-02 -1.436173e-02 5.500000e-01
         vertex -1.435218e-04 -1.436173e-02 5.000000e-01
         vertex -1.435218e-04 -1.436173e-02 5.500000e-01
      endloop
   endfacet
   facet normal 9.900247e-01 -1.408936e-01 0.000000e+00
      outer loop
         vertex 1.094932e-01 -3.399879e-02 5.500000e-01
         vertex 1.094932e-01 -3.399879e-02 5.000000e-01
         vertex 1.110458e-01 -2.308919e-02 5.000000e-01
      endloop
   endfacet
   facet normal 8.406494e-01 5.415797e-01 -0.000000e+00
      outer loop
         vertex 1.110458e-01 -2.308919e-02 5.000000e-01
         vertex 1.068288e-01 -1.654350e-02 5.000000e-01
         vertex 1.068288e-01 -1.654350e-02 5.500000e-01
      endloop
   endfacet
   facet normal 2.134480e-01 9.769544e-01 -0.000000e+00
      outer loop
         vertex 1.068288e-01 -1.654350e-02 5.000000e-01
         vertex 9.684280e-02 -1.436173e-02 5.000000e-01
         vertex 9.684280e-02 -1.436173e-02 5.500000e-01
      endloop
   endfacet
   facet normal 2.134480e-01 9.769544e-01 0.000000e+00
      outer loop
         vertex 9.684280e-02 -1.436173e-02 5.500000e-01
         vertex 1.068288e-01 -1.654350e-02 5.500000e-01
         vertex 1.068288e-01 -1.654350e-02 5.000000e-01
      endloop
   endfacet
   facet normal 8.406494e-01 5.415797e-01 0.000000e+00
      outer loop
         vertex 1.068288e-01 -1.654350e-02 5.500000e-01
         vertex 1.110458e-01 -2.308919e-02 5.500000e-01
         vertex 1.110458e-01 -2.308919e-02 5.000000e-01
      endloop
   endfacet
   facet normal 9.900247e-01 -1.408936e-01 0.000000e+00
      outer loop
         vertex 1.110458e-01 -2.308919e-02 5.500000e-01
         vertex 1.094932e-01 -3.399879e-02 5.500000e-01
         vertex 1.110458e-01 -2.308919e-02 5.000000e-01
      endloop
   endfacet
   facet normal 9.468254e-01 -3.217479e-01 0.000000e+00
      outer loop
         vertex 2.933272e-02 -2.698914e-01 5.500000e-01
         vertex 2.933272e-02 -2.698914e-01 5.000000e-01
         vertex 1.094932e-01 -3.399879e-02 5.000000e-01
      endloop
   endfacet
   facet normal 9.468254e-01 -3.217479e-01 0.000000e+00
      outer loop
         vertex 2.933272e-02 -2.698914e-01 5.500000e-01
         vertex 1.094932e-01 -3.399879e-02 5.000000e-01
         vertex 1.094932e-01 -3.399879e-02 5.500000e-01
      endloop
   endfacet
   facet normal 1.861598e-01 -9.825195e-01 0.000000e+00
      outer loop
         vertex 3.246464e-03 -2.895284e-01 5.500000e-01
         vertex 3.246464e-03 -2.895284e-01 5.000000e-01
         vertex 1.476241e-02 -2.873465e-01 5.000000e-01
      endloop
   endfacet
   facet normal 6.014254e-01 -7.989290e-01 0.000000e+00
      outer loop
         vertex 1.476241e-02 -2.873465e-01 5.000000e-01
         vertex 2.345789e-02 -2.808006e-01 5.000000e-01
         vertex 2.345789e-02 -2.808006e-01 5.500000e-01
      endloop
   endfacet
   facet normal 8.804494e-01 -4.741401e-01 0.000000e+00
      outer loop
         vertex 2.345789e-02 -2.808006e-01 5.000000e-01
         vertex 2.933272e-02 -2.698914e-01 5.000000e-01
         vertex 2.933272e-02 -2.698914e-01 5.500000e-01
      endloop
   endfacet
   facet normal 8.804494e-01 -4.741401e-01 0.000000e+00
      outer loop
         vertex 2.933272e-02 -2.698914e-01 5.500000e-01
         vertex 2.345789e-02 -2.808006e-01 5.500000e-01
         vertex 2.345789e-02 -2.808006e-01 5.000000e-01
      endloop
   endfacet
   facet normal 6.014254e-01 -7.989290e-01 0.000000e+00
      outer loop
         vertex 2.345789e-02 -2.808006e-01 5.500000e-01
         vertex 1.476241e-02 -2.873465e-01 5.500000e-01
         vertex 1.476241e-02 -2.873465e-01 5.000000e-01
      endloop
   endfacet
   facet normal 1.861598e-01 -9.825195e-01 0.000000e+00
      outer loop
         vertex 1.476241e-02 -2.873465e-01 5.500000e-01
         vertex 3.246464e-03 -2.895284e-01 5.500000e-01
         vertex 1.476241e-02 -2.873465e-01 5.000000e-01
      endloop
   endfacet
   facet normal 0.000000e+00 -1.000000e+00 0.000000e+00
      outer loop
         vertex -1.908089e-01 -2.895284e-01 5.500000e-01
         vertex -1.908089e-01 -2.895284e-01 5.000000e-01
         vertex 3.246464e-03 -2.895284e-01 5.000000e-01
      endloop
   endfacet
   facet normal 0.000000e+00 -1.000000e+00 0.000000e+00
      outer loop
         vertex -1.908089e-01 -2.895284e-01 5.500000e-01
         vertex 3.246464e-03 -2.895284e-01 5.000000e-01
         vertex 3.246464e-03 -2.895284e-01 5.500000e-01
      endloop
   endfacet
   facet normal -7.599182e-01 -6.500187e-01 0.000000e+00
      outer loop
         vertex -2.018263e-01 -2.831826e-01 5.500000e-01
         vertex -2.018263e-01 -2.831826e-01 5.000000e-01
         vertex -1.988107e-01 -2.867081e-01 5.000000e-01
      endloop
   endfacet
   facet normal -4.991023e-01 -8.665431e-01 0.000000e+00
      outer loop
         vertex -1.988107e-01 -2.867081e-01 5.000000e-01
         vertex -1.951381e-01 -2.888233e-01 5.000000e-01
         vertex -1.951381e-01 -2.888233e-01 5.500000e-01
      endloop
   endfacet
   facet normal -1.607437e-01 -9.869962e-01 0.000000e+00
      outer loop
         vertex -1.951381e-01 -2.888233e-01 5.000000e-01
         vertex -1.908089e-01 -2.895284e-01 5.000000e-01
         vertex -1.908089e-01 -2.895284e-01 5.500000e-01
      endloop
   endfacet
   facet normal -1.607437e-01 -9.869962e-01 -0.000000e+00
      outer loop
         vertex -1.908089e-01 -2.895284e-01 5.500000e-01
         vertex -1.951381e-01 -2.888233e-01 5.500000e-01
         vertex -1.951381e-01 -2.888233e-01 5.000000e-01
      endloop
   endfacet
   facet normal -4.991023e-01 -8.665431e-01 -0.000000e+00
      outer loop
         vertex -1.951381e-01 -2.888233e-01 5.500000e-01
         vertex -1.988107e-01 -2.867081e-01 5.500000e-01
         vertex -1.988107e-01 -2.867081e-01 5.000000e-01
      endloop
   endfacet
   facet normal -7.599182e-01 -6.500187e-01 0.000000e+00
      outer loop
         vertex -1.988107e-01 -2.867081e-01 5.500000e-01
         vertex -2.018263e-01 -2.831826e-01 5.500000e-01
         vertex -1.988107e-01 -2.867081e-01 5.000000e-01
      endloop
   endfacet
   facet normal -9.826042e-01 1.857123e-01 0.000000e+00
      outer loop
         vertex -2.034593e-01 -2.696847e-01 5.500000e-01
         vertex -2.034593e-01 -2.696847e-01 5.000000e-01
         vertex -2.043435e-01 -2.743632e-01 5.000000e-01
      endloop
   endfacet
   facet normal -9.927608e-01 -1.201086e-01 0.000000e+00
      outer loop
         vertex -2.043435e-01 -2.743632e-01 5.000000e-01
         vertex -2.037992e-01 -2.788625e-01 5.000000e-01
         vertex -2.037992e-01 -2.788625e-01 5.500000e-01
      endloop
   endfacet
   facet normal -9.096348e-01 -4.154088e-01 0.000000e+00
      outer loop
         vertex -2.037992e-01 -2.788625e-01 5.000000e-01
         vertex -2.018263e-01 -2.831826e-01 5.000000e-01
         vertex -2.018263e-01 -2.831826e-01 5.500000e-01
      endloop
   endfacet
   facet normal -9.096348e-01 -4.154088e-01 -0.000000e+00
      outer loop
         vertex -2.018263e-01 -2.831826e-01 5.500000e-01
         vertex -2.037992e-01 -2.788625e-01 5.500000e-01
         vertex -2.037992e-01 -2.788625e-01 5.000000e-01
      endloop
   endfacet
   facet normal -9.927608e-01 -1.201086e-01 -0.000000e+00
      outer loop
         vertex -2.037992e-01 -2.788625e-01 5.500000e-01
         vertex -2.043435e-01 -2.743632e-01 5.500000e-01
         vertex -2.043435e-01 -2.743632e-01 5.000000e-01
      endloop
   endfacet
   facet normal -9.826042e-01 1.857123e-01 0.000000e+00
      outer loop
         vertex -2.043435e-01 -2.743632e-01 5.500000e-01
         vertex -2.034593e-01 -2.696847e-01 5.500000e-01
         vertex -2.043435e-01 -2.743632e-01 5.000000e-01
      endloop
   endfacet
   facet normal -7.123919e-01 7.017819e-01 0.000000e+00
      outer loop
         vertex -1.938475e-01 -2.561868e-01 5.500000e-01
         vertex -1.938475e-01 -2.561868e-01 5.000000e-01
         vertex -1.981034e-01 -2.605070e-01 5.000000e-01
      endloop
   endfacet
   facet normal -8.145769e-01 5.800555e-01 0.000000e+00
      outer loop
         vertex -1.981034e-01 -2.605070e-01 5.000000e-01
         vertex -2.013073e-01 -2.650064e-01 5.000000e-01
         vertex -2.013073e-01 -2.650064e-01 5.500000e-01
      endloop
   endfacet
   facet normal -9.084946e-01 4.178966e-01 0.000000e+00
      outer loop
         vertex -2.013073e-01 -2.650064e-01 5.000000e-01
         vertex -2.034593e-01 -2.696847e-01 5.000000e-01
         vertex -2.034593e-01 -2.696847e-01 5.500000e-01
      endloop
   endfacet
   facet normal -9.084946e-01 4.178966e-01 0.000000e+00
      outer loop
         vertex -2.034593e-01 -2.696847e-01 5.500000e-01
         vertex -2.013073e-01 -2.650064e-01 5.500000e-01
         vertex -2.013073e-01 -2.650064e-01 5.000000e-01
      endloop
   endfacet
   facet normal -8.145769e-01 5.800555e-01 0.000000e+00
      outer loop
         vertex -2.013073e-01 -2.650064e-01 5.500000e-01
         vertex -1.981034e-01 -2.605070e-01 5.500000e-01
         vertex -1.981034e-01 -2.605070e-01 5.000000e-01
      endloop
   endfacet
   facet normal -7.123919e-01 7.017819e-01 0.000000e+00
      outer loop
         vertex -1.981034e-01 -2.605070e-01 5.500000e-01
         vertex -1.938475e-01 -2.561868e-01 5.500000e-01
         vertex -1.981034e-01 -2.605070e-01 5.000000e-01
      endloop
   endfacet
   facet normal -1.178435e-01 9.930322e-01 0.000000e+00
      outer loop
         vertex -1.774144e-01 -2.498409e-01 5.500000e-01
         vertex -1.774144e-01 -2.498409e-01 5.000000e-01
         vertex -1.833561e-01 -2.505460e-01 5.000000e-01
      endloop
   endfacet
   facet normal -3.602448e-01 9.328578e-01 0.000000e+00
      outer loop
         vertex -1.833561e-01 -2.505460e-01 5.000000e-01
         vertex -1.888339e-01 -2.526614e-01 5.000000e-01
         vertex -1.888339e-01 -2.526614e-01 5.500000e-01
      endloop
   endfacet
   facet normal -5.752006e-01 8.180124e-01 0.000000e+00
      outer loop
         vertex -1.888339e-01 -2.526614e-01 5.000000e-01
         vertex -1.938475e-01 -2.561868e-01 5.000000e-01
         vertex -1.938475e-01 -2.561868e-01 5.500000e-01
      endloop
   endfacet
   facet normal -5.752006e-01 8.180124e-01 0.000000e+00
      outer loop
         vertex -1.938475e-01 -2.561868e-01 5.500000e-01
         vertex -1.888339e-01 -2.526614e-01 5.500000e-01
         vertex -1.888339e-01 -2.526614e-01 5.000000e-01
      endloop
   endfacet
   facet normal -3.602448e-01 9.328578e-01 0.000000e+00
      outer loop
         vertex -1.888339e-01 -2.526614e-01 5.500000e-01
         vertex -1.833561e-01 -2.505460e-01 5.500000e-01
         vertex -1.833561e-01 -2.505460e-01 5.000000e-01
      endloop
   endfacet
   facet normal -1.178435e-01 9.930322e-01 0.000000e+00
      outer loop
         vertex -1.833561e-01 -2.505460e-01 5.500000e-01
         vertex -1.774144e-01 -2.498409e-01 5.500000e-01
         vertex -1.833561e-01 -2.505460e-01 5.000000e-01
      endloop
   endfacet
   facet normal 0.000000e+00 1.000000e+00 -0.000000e+00
      outer loop
         vertex -3.574849e-03 -2.498409e-01 5.500000e-01
         vertex -3.574849e-03 -2.498409e-01 5.000000e-01
         vertex -1.774144e-01 -2.498409e-01 5.000000e-01
      endloop
   endfacet
   facet normal 0.000000e+00 1.000000e+00 0.000000e+00
      outer loop
         vertex -3.574849e-03 -2.498409e-01 5.500000e-01
         vertex -1.774144e-01 -2.498409e-01 5.000000e-01
         vertex -1.774144e-01 -2.498409e-01 5.500000e-01
      endloop
   endfacet
   facet normal -9.467874e-01 3.218597e-01 0.000000e+00
      outer loop
         vertex 6.298440e-02 -5.404923e-02 5.500000e-01
         vertex 6.298440e-02 -5.404923e-02 5.000000e-01
         vertex -3.574849e-03 -2.498409e-01 5.000000e-01
      endloop
   endfacet
   facet normal -9.467874e-01 3.218597e-01 0.000000e+00
      outer loop
         vertex 6.298440e-02 -5.404923e-02 5.500000e-01
         vertex -3.574849e-03 -2.498409e-01 5.000000e-01
         vertex -3.574849e-03 -2.498409e-01 5.500000e-01
      endloop
   endfacet
   facet normal 0.000000e+00 -1.000000e+00 0.000000e+00
      outer loop
         vertex -1.465428e-02 -5.404923e-02 5.500000e-01
         vertex -1.465428e-02 -5.404923e-02 5.000000e-01
         vertex 6.298440e-02 -5.404923e-02 5.000000e-01
      endloop
   endfacet
   facet normal 0.000000e+00 -1.000000e+00 0.000000e+00
      outer loop
         vertex -1.465428e-02 -5.404923e-02 5.500000e-01
         vertex 6.298440e-02 -5.404923e-02 5.000000e-01
         vertex 6.298440e-02 -5.404923e-02 5.500000e-01
      endloop
   endfacet
   facet normal -7.260280e-01 -6.876652e-01 0.000000e+00
      outer loop
         vertex -8.466549e-02 -2.025286e-02 5.500000e-01
         vertex -8.466549e-02 -2.025286e-02 5.000000e-01
         vertex -6.688161e-02 -3.902885e-02 5.000000e-01
      endloop
   endfacet
   facet normal -4.347197e-01 -9.005658e-01 0.000000e+00
      outer loop
         vertex -6.688161e-02 -3.902885e-02 5.000000e-01
         vertex -4.354407e-02 -5.029431e-02 5.000000e-01
         vertex -4.354407e-02 -5.029431e-02 5.500000e-01
      endloop
   endfacet
   facet normal -1.288901e-01 -9.916589e-01 0.000000e+00
      outer loop
         vertex -4.354407e-02 -5.029431e-02 5.000000e-01
         vertex -1.465428e-02 -5.404923e-02 5.000000e-01
         vertex -1.465428e-02 -5.404923e-02 5.500000e-01
      endloop
   endfacet
   facet normal -1.288901e-01 -9.916589e-01 -0.000000e+00
      outer loop
         vertex -1.465428e-02 -5.404923e-02 5.500000e-01
         vertex -4.354407e-02 -5.029431e-02 5.500000e-01
         vertex -4.354407e-02 -5.029431e-02 5.000000e-01
      endloop
   endfacet
   facet normal -4.347197e-01 -9.005658e-01 -0.000000e+00
      outer loop
         vertex -4.354407e-02 -5.029431e-02 5.500000e-01
         vertex -6.688161e-02 -3.902885e-02 5.500000e-01
         vertex -6.688161e-02 -3.902885e-02 5.000000e-01
      endloop
   endfacet
   facet normal -7.260280e-01 -6.876652e-01 0.000000e+00
      outer loop
         vertex -6.688161e-02 -3.902885e-02 5.500000e-01
         vertex -8.466549e-02 -2.025286e-02 5.500000e-01
         vertex -6.688161e-02 -3.902885e-02 5.000000e-01
      endloop
   endfacet
   facet normal -9.779352e-01 2.089086e-01 0.000000e+00
      outer loop
         vertex -9.113540e-02 6.079645e-02 5.500000e-01
         vertex -9.113540e-02 6.079645e-02 5.000000e-01
         vertex -9.754560e-02 3.078924e-02 5.000000e-01
      endloop
   endfacet
   facet normal -9.968284e-01 -7.958095e-02 0.000000e+00
      outer loop
         vertex -9.754560e-02 3.078924e-02 5.000000e-01
         vertex -9.538874e-02 3.772468e-03 5.000000e-01
         vertex -9.538874e-02 3.772468e-03 5.500000e-01
      endloop
   endfacet
   facet normal -9.131710e-01 -4.075766e-01 0.000000e+00
      outer loop
         vertex -9.538874e-02 3.772468e-03 5.000000e-01
         vertex -8.466549e-02 -2.025286e-02 5.000000e-01
         vertex -8.466549e-02 -2.025286e-02 5.500000e-01
      endloop
   endfacet
   facet normal -9.131710e-01 -4.075766e-01 -0.000000e+00
      outer loop
         vertex -8.466549e-02 -2.025286e-02 5.500000e-01
         vertex -9.538874e-02 3.772468e-03 5.500000e-01
         vertex -9.538874e-02 3.772468e-03 5.000000e-01
      endloop
   endfacet
   facet normal -9.968284e-01 -7.958095e-02 -0.000000e+00
      outer loop
         vertex -9.538874e-02 3.772468e-03 5.500000e-01
         vertex -9.754560e-02 3.078924e-02 5.500000e-01
         vertex -9.754560e-02 3.078924e-02 5.000000e-01
      endloop
   endfacet
   facet normal -9.779352e-01 2.089086e-01 0.000000e+00
      outer loop
         vertex -9.754560e-02 3.078924e-02 5.500000e-01
         vertex -9.113540e-02 6.079645e-02 5.500000e-01
         vertex -9.754560e-02 3.078924e-02 5.000000e-01
      endloop
   endfacet
   facet normal -9.467821e-01 3.218753e-01 0.000000e+00
      outer loop
         vertex -6.500780e-02 1.376496e-01 5.500000e-01
         vertex -6.500780e-02 1.376496e-01 5.000000e-01
         vertex -9.113540e-02 6.079645e-02 5.000000e-01
      endloop
   endfacet
   facet normal -9.467821e-01 3.218753e-01 0.000000e+00
      outer loop
         vertex -6.500780e-02 1.376496e-01 5.500000e-01
         vertex -9.113540e-02 6.079645e-02 5.000000e-01
         vertex -9.113540e-02 6.079645e-02 5.500000e-01
      endloop
   endfacet
   facet normal -6.641019e-01 7.476420e-01 0.000000e+00
      outer loop
         vertex -3.264786e-03 2.188643e-01 5.500000e-01
         vertex -3.264786e-03 2.188643e-01 5.000000e-01
         vertex -3.043777e-02 1.947276e-01 5.000000e-01
      endloop
   endfacet
   facet normal -7.960712e-01 6.052030e-01 0.000000e+00
      outer loop
         vertex -3.043777e-02 1.947276e-01 5.000000e-01
         vertex -5.101893e-02 1.676556e-01 5.000000e-01
         vertex -5.101893e-02 1.676556e-01 5.500000e-01
      endloop
   endfacet
   facet normal -9.063439e-01 4.225408e-01 0.000000e+00
      outer loop
         vertex -5.101893e-02 1.676556e-01 5.000000e-01
         vertex -6.500780e-02 1.376496e-01 5.000000e-01
         vertex -6.500780e-02 1.376496e-01 5.500000e-01
      endloop
   endfacet
   facet normal -9.063439e-01 4.225408e-01 0.000000e+00
      outer loop
         vertex -6.500780e-02 1.376496e-01 5.500000e-01
         vertex -5.101893e-02 1.676556e-01 5.500000e-01
         vertex -5.101893e-02 1.676556e-01 5.000000e-01
      endloop
   endfacet
   facet normal -7.960712e-01 6.052030e-01 0.000000e+00
      outer loop
         vertex -5.101893e-02 1.676556e-01 5.500000e-01
         vertex -3.043777e-02 1.947276e-01 5.500000e-01
         vertex -3.043777e-02 1.947276e-01 5.000000e-01
      endloop
   endfacet
   facet normal -6.641019e-01 7.476420e-01 0.000000e+00
      outer loop
         vertex -3.043777e-02 1.947276e-01 5.500000e-01
         vertex -3.264786e-03 2.188643e-01 5.500000e-01
         vertex -3.043777e-02 1.947276e-01 5.000000e-01
      endloop
   endfacet
   facet normal 0.000000e+00 -1.000000e+00 0.000000e+00
      outer loop
         vertex -5.000000e-01 -5.000000e-01 5.000000e-01
         vertex -5.000000e-01 -5.000000e-01 -5.000000e-01
         vertex 5.000000e-01 -5.000000e-01 -5.000000e-01
      endloop
   endfacet
   facet normal 0.000000e+00 -1.000000e+00 0.000000e+00
      outer loop
         vertex -5.000000e-01 -5.000000e-01 5.000000e-01
         vertex 5.000000e-01 -5.000000e-01 -5.000000e-01
         vertex 5.000000e-01 -5.000000e-01 5.000000e-01
      endloop
   endfacet
   facet normal 1.000000e+00 0.000000e+00 0.000000e+00
      outer loop
         vertex 5.000000e-01 -5.000000e-01 5.000000e-01
         vertex 5.000000e-01 -5.000000e-01 -5.000000e-01
         vertex 5.000000e-01 5.000000e-01 -5.000000e-01
      endloop
   endfacet
   facet normal 1.000000e+00 0.000000e+00 -0.000000e+00
      outer loop
         vertex 5.000000e-01 -5.000000e-01 5.000000e-01
         vertex 5.000000e-01 5.000000e-01 -5.000000e-01
         vertex 5.000000e-01 5.000000e-01 5.000000e-01
      endloop
   endfacet
   facet normal 0.000000e+00 1.000000e+00 -0.000000e+00
      outer loop
         vertex 5.000000e-01 5.000000e-01 5.000000e-01
         vertex 5.000000e-01 5.000000e-01 -5.000000e-01
         vertex -5.000000e-01 5.000000e-01 -5.000000e-01
      endloop
   endfacet
   facet normal 0.000000e+00 1.000000e+00 0.000000e+00
      outer loop
         vertex 5.000000e-01 5.000000e-01 5.000000e-01
         vertex -5.000000e-01 5.000000e-01 -5.000000e-01
         vertex -5.000000e-01 5.000000e-01 5.000000e-01
      endloop
   endfacet
   facet normal -1.000000e+00 0.000000e+00 0.000000e+00
      outer loop
         vertex -5.000000e-01 5.000000e-01 5.000000e-01
         vertex -5.000000e-01 5.000000e-01 -5.000000e-01
         vertex -5.000000e-01 -5.000000e-01 -5.000000e-01
      endloop
   endfacet
   facet normal -1.000000e+00 0.000000e+00 0.000000e+00
      outer loop
         vertex -5.000000e-01 5.000000e-01 5.000000e-01
         vertex -5.000000e-01 -5.000000e-01 -5.000000e-01
         vertex -5.000000e-01 -5.000000e-01 5.000000e-01
      endloop
   endfacet
   facet normal 0.000000e+00 0.000000e+00 1.000000e+00
      outer loop
         vertex 2.743009e-02 2.377545e-01 5.500000e-01
         vertex -3.264786e-03 2.188643e-01 5.500000e-01
         vertex 5.858111e-02 2.490892e-01 5.500000e-01
      endloop
   endfacet
   facet normal 0.000000e+00 0.000000e+00 1.000000e+00
      outer loop
         vertex -3.264786e-03 2.188643e-01 5.500000e-01
         vertex -3.043777e-02 1.947276e-01 5.500000e-01
         vertex 5.858111e-02 2.490892e-01 5.500000e-01
      endloop
   endfacet
   facet normal 0.000000e+00 0.000000e+00 1.000000e+00
      outer loop
         vertex 5.858111e-02 2.490892e-01 5.500000e-01
         vertex -3.043777e-02 1.947276e-01 5.500000e-01
         vertex 9.018689e-02 2.528674e-01 5.500000e-01
      endloop
   endfacet
   facet normal 0.000000e+00 0.000000e+00 1.000000e+00
      outer loop
         vertex -3.043777e-02 1.947276e-01 5.500000e-01
         vertex -5.101893e-02 1.676556e-01 5.500000e-01
         vertex 9.018689e-02 2.528674e-01 5.500000e-01
      endloop
   endfacet
   facet normal 0.000000e+00 0.000000e+00 1.000000e+00
      outer loop
         vertex 9.018689e-02 2.528674e-01 5.500000e-01
         vertex 5.608337e-02 2.107318e-01 5.500000e-01
         vertex 1.875866e-01 2.528674e-01 5.500000e-01
      endloop
   endfacet
   facet normal 0.000000e+00 -0.000000e+00 1.000000e+00
      outer loop
         vertex 5.608337e-02 2.107318e-01 5.500000e-01
         vertex 7.720577e-02 2.131799e-01 5.500000e-01
         vertex 1.875866e-01 2.528674e-01 5.500000e-01
      endloop
   endfacet
   facet normal 0.000000e+00 0.000000e+00 1.000000e+00
      outer loop
         vertex 1.875866e-01 2.528674e-01 5.500000e-01
         vertex 7.720577e-02 2.131799e-01 5.500000e-01
         vertex 1.929379e-01 2.522520e-01 5.500000e-01
      endloop
   endfacet
   facet normal 0.000000e+00 -0.000000e+00 1.000000e+00
      outer loop
         vertex 7.720577e-02 2.131799e-01 5.500000e-01
         vertex 1.741921e-01 2.131799e-01 5.500000e-01
         vertex 1.929379e-01 2.522520e-01 5.500000e-01
      endloop
   endfacet
   facet normal 0.000000e+00 0.000000e+00 1.000000e+00
      outer loop
         vertex 1.929379e-01 2.522520e-01 5.500000e-01
         vertex 1.741921e-01 2.131799e-01 5.500000e-01
         vertex 1.970858e-01 2.504054e-01 5.500000e-01
      endloop
   endfacet
   facet normal 0.000000e+00 -0.000000e+00 1.000000e+00
      outer loop
         vertex 1.741921e-01 2.131799e-01 5.500000e-01
         vertex 1.803727e-01 2.140389e-01 5.500000e-01
         vertex 1.970858e-01 2.504054e-01 5.500000e-01
      endloop
   endfacet
   facet normal 0.000000e+00 0.000000e+00 1.000000e+00
      outer loop
         vertex 1.970858e-01 2.504054e-01 5.500000e-01
         vertex 1.803727e-01 2.140389e-01 5.500000e-01
         vertex 2.000303e-01 2.473277e-01 5.500000e-01
      endloop
   endfacet
   facet normal 0.000000e+00 -0.000000e+00 1.000000e+00
      outer loop
         vertex 1.803727e-01 2.140389e-01 5.500000e-01
         vertex 1.860709e-01 2.166159e-01 5.500000e-01
         vertex 2.000303e-01 2.473277e-01 5.500000e-01
      endloop
   endfacet
   facet normal 0.000000e+00 0.000000e+00 1.000000e+00
      outer loop
         vertex 2.000303e-01 2.473277e-01 5.500000e-01
         vertex 1.860709e-01 2.166159e-01 5.500000e-01
         vertex 2.013394e-01 2.429089e-01 5.500000e-01
      endloop
   endfacet
   facet normal 0.000000e+00 -0.000000e+00 1.000000e+00
      outer loop
         vertex 1.860709e-01 2.166159e-01 5.500000e-01
         vertex 1.912866e-01 2.209107e-01 5.500000e-01
         vertex 2.013394e-01 2.429089e-01 5.500000e-01
      endloop
   endfacet
   facet normal 0.000000e+00 0.000000e+00 1.000000e+00
      outer loop
         vertex 2.013394e-01 2.429089e-01 5.500000e-01
         vertex 1.912866e-01 2.209107e-01 5.500000e-01
         vertex 2.014083e-01 2.381409e-01 5.500000e-01
      endloop
   endfacet
   facet normal 0.000000e+00 -0.000000e+00 1.000000e+00
      outer loop
         vertex 1.912866e-01 2.209107e-01 5.500000e-01
         vertex 1.955977e-01 2.256926e-01 5.500000e-01
         vertex 2.014083e-01 2.381409e-01 5.500000e-01
      endloop
   endfacet
   facet normal 0.000000e+00 0.000000e+00 1.000000e+00
      outer loop
         vertex 2.014083e-01 2.381409e-01 5.500000e-01
         vertex 1.955977e-01 2.256926e-01 5.500000e-01
         vertex 2.002370e-01 2.330237e-01 5.500000e-01
      endloop
   endfacet
   facet normal 0.000000e+00 -0.000000e+00 1.000000e+00
      outer loop
         vertex 1.955977e-01 2.256926e-01 5.500000e-01
         vertex 1.985811e-01 2.297303e-01 5.500000e-01
         vertex 2.002370e-01 2.330237e-01 5.500000e-01
      endloop
   endfacet
   facet normal 0.000000e+00 0.000000e+00 1.000000e+00
      outer loop
         vertex 5.608337e-02 2.107318e-01 5.500000e-01
         vertex 9.018689e-02 2.528674e-01 5.500000e-01
         vertex 3.543314e-02 2.033868e-01 5.500000e-01
      endloop
   endfacet
   facet normal 0.000000e+00 0.000000e+00 1.000000e+00
      outer loop
         vertex 3.543314e-02 2.033868e-01 5.500000e-01
         vertex 9.018689e-02 2.528674e-01 5.500000e-01
         vertex 1.525605e-02 1.911451e-01 5.500000e-01
      endloop
   endfacet
   facet normal 0.000000e+00 0.000000e+00 1.000000e+00
      outer loop
         vertex 9.018689e-02 2.528674e-01 5.500000e-01
         vertex -5.101893e-02 1.676556e-01 5.500000e-01
         vertex 1.525605e-02 1.911451e-01 5.500000e-01
      endloop
   endfacet
   facet normal 0.000000e+00 0.000000e+00 1.000000e+00
      outer loop
         vertex 1.525605e-02 1.911451e-01 5.500000e-01
         vertex -5.101893e-02 1.676556e-01 5.500000e-01
         vertex -2.563819e-03 1.753579e-01 5.500000e-01
      endloop
   endfacet
   facet normal 0.000000e+00 0.000000e+00 1.000000e+00
      outer loop
         vertex -5.101893e-02 1.676556e-01 5.500000e-01
         vertex -6.500780e-02 1.376496e-01 5.500000e-01
         vertex -2.563819e-03 1.753579e-01 5.500000e-01
      endloop
   endfacet
   facet normal 0.000000e+00 0.000000e+00 1.000000e+00
      outer loop
         vertex -2.563819e-03 1.753579e-01 5.500000e-01
         vertex -6.500780e-02 1.376496e-01 5.500000e-01
         vertex -1.614469e-02 1.573742e-01 5.500000e-01
      endloop
   endfacet
   facet normal 0.000000e+00 0.000000e+00 1.000000e+00
      outer loop
         vertex -6.500780e-02 1.376496e-01 5.500000e-01
         vertex -9.113540e-02 6.079645e-02 5.500000e-01
         vertex -1.614469e-02 1.573742e-01 5.500000e-01
      endloop
   endfacet
   facet normal 0.000000e+00 0.000000e+00 1.000000e+00
      outer loop
         vertex -1.614469e-02 1.573742e-01 5.500000e-01
         vertex -9.113540e-02 6.079645e-02 5.500000e-01
         vertex -2.548567e-02 1.371949e-01 5.500000e-01
      endloop
   endfacet
   facet normal 0.000000e+00 0.000000e+00 1.000000e+00
      outer loop
         vertex -9.113540e-02 6.079645e-02 5.500000e-01
         vertex -9.754560e-02 3.078924e-02 5.500000e-01
         vertex -2.548567e-02 1.371949e-01 5.500000e-01
      endloop
   endfacet
   facet normal 0.000000e+00 0.000000e+00 1.000000e+00
      outer loop
         vertex -2.548567e-02 1.371949e-01 5.500000e-01
         vertex -9.754560e-02 3.078924e-02 5.500000e-01
         vertex -5.128253e-02 6.125120e-02 5.500000e-01
      endloop
   endfacet
   facet normal 0.000000e+00 -0.000000e+00 1.000000e+00
      outer loop
         vertex -9.754560e-02 3.078924e-02 5.500000e-01
         vertex -9.538874e-02 3.772468e-03 5.500000e-01
         vertex -5.128253e-02 6.125120e-02 5.500000e-01
      endloop
   endfacet
   facet normal 0.000000e+00 0.000000e+00 1.000000e+00
      outer loop
         vertex -5.128253e-02 6.125120e-02 5.500000e-01
         vertex -9.538874e-02 3.772468e-03 5.500000e-01
         vertex -5.557508e-02 4.127941e-02 5.500000e-01
      endloop
   endfacet
   facet normal 0.000000e+00 -0.000000e+00 1.000000e+00
      outer loop
         vertex -9.538874e-02 3.772468e-03 5.500000e-01
         vertex -8.466549e-02 -2.025286e-02 5.500000e-01
         vertex -5.557508e-02 4.127941e-02 5.500000e-01
      endloop
   endfacet
   facet normal 0.000000e+00 0.000000e+00 1.000000e+00
      outer loop
         vertex -5.557508e-02 4.127941e-02 5.500000e-01
         vertex -8.466549e-02 -2.025286e-02 5.500000e-01
         vertex -5.417647e-02 2.341971e-02 5.500000e-01
      endloop
   endfacet
   facet normal 0.000000e+00 -0.000000e+00 1.000000e+00
      outer loop
         vertex -8.466549e-02 -2.025286e-02 5.500000e-01
         vertex -6.688161e-02 -3.902885e-02 5.500000e-01
         vertex -5.417647e-02 2.341971e-02 5.500000e-01
      endloop
   endfacet
   facet normal 0.000000e+00 0.000000e+00 1.000000e+00
      outer loop
         vertex -5.417647e-02 2.341971e-02 5.500000e-01
         vertex -6.688161e-02 -3.902885e-02 5.500000e-01
         vertex -4.708638e-02 7.673070e-03 5.500000e-01
      endloop
   endfacet
   facet normal 0.000000e+00 0.000000e+00 1.000000e+00
      outer loop
         vertex -6.688161e-02 -3.902885e-02 5.500000e-01
         vertex -4.354407e-02 -5.029431e-02 5.500000e-01
         vertex -4.708638e-02 7.673070e-03 5.500000e-01
      endloop
   endfacet
   facet normal 0.000000e+00 -0.000000e+00 1.000000e+00
      outer loop
         vertex -4.708638e-02 7.673070e-03 5.500000e-01
         vertex -4.354407e-02 -5.029431e-02 5.500000e-01
         vertex -3.524716e-02 -4.568194e-03 5.500000e-01
      endloop
   endfacet
   facet normal 0.000000e+00 0.000000e+00 1.000000e+00
      outer loop
         vertex -4.354407e-02 -5.029431e-02 5.500000e-01
         vertex -1.465428e-02 -5.404923e-02 5.500000e-01
         vertex -3.524716e-02 -4.568194e-03 5.500000e-01
      endloop
   endfacet
   facet normal 0.000000e+00 0.000000e+00 1.000000e+00
      outer loop
         vertex -3.524716e-02 -4.568194e-03 5.500000e-01
         vertex -1.465428e-02 -5.404923e-02 5.500000e-01
         vertex -1.959939e-02 -1.191335e-02 5.500000e-01
      endloop
   endfacet
   facet normal 0.000000e+00 0.000000e+00 1.000000e+00
      outer loop
         vertex -1.465428e-02 -5.404923e-02 5.500000e-01
         vertex 6.298440e-02 -5.404923e-02 5.500000e-01
         vertex -1.959939e-02 -1.191335e-02 5.500000e-01
      endloop
   endfacet
   facet normal 0.000000e+00 0.000000e+00 1.000000e+00
      outer loop
         vertex -1.959939e-02 -1.191335e-02 5.500000e-01
         vertex 6.298440e-02 -5.404923e-02 5.500000e-01
         vertex -1.435218e-04 -1.436173e-02 5.500000e-01
      endloop
   endfacet
   facet normal 0.000000e+00 0.000000e+00 1.000000e+00
      outer loop
         vertex -1.774144e-01 -2.498409e-01 5.500000e-01
         vertex -1.833561e-01 -2.505460e-01 5.500000e-01
         vertex -3.574849e-03 -2.498409e-01 5.500000e-01
      endloop
   endfacet
   facet normal 0.000000e+00 0.000000e+00 1.000000e+00
      outer loop
         vertex -1.833561e-01 -2.505460e-01 5.500000e-01
         vertex -1.888339e-01 -2.526614e-01 5.500000e-01
         vertex -3.574849e-03 -2.498409e-01 5.500000e-01
      endloop
   endfacet
   facet normal 0.000000e+00 0.000000e+00 1.000000e+00
      outer loop
         vertex -1.888339e-01 -2.526614e-01 5.500000e-01
         vertex -1.938475e-01 -2.561868e-01 5.500000e-01
         vertex -3.574849e-03 -2.498409e-01 5.500000e-01
      endloop
   endfacet
   facet normal 0.000000e+00 0.000000e+00 1.000000e+00
      outer loop
         vertex -1.938475e-01 -2.561868e-01 5.500000e-01
         vertex -1.981034e-01 -2.605070e-01 5.500000e-01
         vertex -3.574849e-03 -2.498409e-01 5.500000e-01
      endloop
   endfacet
   facet normal 0.000000e+00 0.000000e+00 1.000000e+00
      outer loop
         vertex -1.981034e-01 -2.605070e-01 5.500000e-01
         vertex -2.013073e-01 -2.650064e-01 5.500000e-01
         vertex -3.574849e-03 -2.498409e-01 5.500000e-01
      endloop
   endfacet
   facet normal 0.000000e+00 0.000000e+00 1.000000e+00
      outer loop
         vertex -2.013073e-01 -2.650064e-01 5.500000e-01
         vertex -2.034593e-01 -2.696847e-01 5.500000e-01
         vertex -3.574849e-03 -2.498409e-01 5.500000e-01
      endloop
   endfacet
   facet normal 0.000000e+00 0.000000e+00 1.000000e+00
      outer loop
         vertex -2.034593e-01 -2.696847e-01 5.500000e-01
         vertex -2.043435e-01 -2.743632e-01 5.500000e-01
         vertex -3.574849e-03 -2.498409e-01 5.500000e-01
      endloop
   endfacet
   facet normal 0.000000e+00 -0.000000e+00 1.000000e+00
      outer loop
         vertex -2.043435e-01 -2.743632e-01 5.500000e-01
         vertex -2.037992e-01 -2.788625e-01 5.500000e-01
         vertex -3.574849e-03 -2.498409e-01 5.500000e-01
      endloop
   endfacet
   facet normal 0.000000e+00 -0.000000e+00 1.000000e+00
      outer loop
         vertex -2.037992e-01 -2.788625e-01 5.500000e-01
         vertex -2.018263e-01 -2.831826e-01 5.500000e-01
         vertex -3.574849e-03 -2.498409e-01 5.500000e-01
      endloop
   endfacet
   facet normal 0.000000e+00 -0.000000e+00 1.000000e+00
      outer loop
         vertex -2.018263e-01 -2.831826e-01 5.500000e-01
         vertex -1.988107e-01 -2.867081e-01 5.500000e-01
         vertex -3.574849e-03 -2.498409e-01 5.500000e-01
      endloop
   endfacet
   facet normal 0.000000e+00 -0.000000e+00 1.000000e+00
      outer loop
         vertex -1.988107e-01 -2.867081e-01 5.500000e-01
         vertex -1.951381e-01 -2.888233e-01 5.500000e-01
         vertex -3.574849e-03 -2.498409e-01 5.500000e-01
      endloop
   endfacet
   facet normal 0.000000e+00 -0.000000e+00 1.000000e+00
      outer loop
         vertex -1.951381e-01 -2.888233e-01 5.500000e-01
         vertex -1.908089e-01 -2.895284e-01 5.500000e-01
         vertex -3.574849e-03 -2.498409e-01 5.500000e-01
      endloop
   endfacet
   facet normal 0.000000e+00 0.000000e+00 1.000000e+00
      outer loop
         vertex -1.908089e-01 -2.895284e-01 5.500000e-01
         vertex 3.246464e-03 -2.895284e-01 5.500000e-01
         vertex -3.574849e-03 -2.498409e-01 5.500000e-01
      endloop
   endfacet
   facet normal 0.000000e+00 -0.000000e+00 1.000000e+00
      outer loop
         vertex -3.574849e-03 -2.498409e-01 5.500000e-01
         vertex 3.246464e-03 -2.895284e-01 5.500000e-01
         vertex 6.298440e-02 -5.404923e-02 5.500000e-01
      endloop
   endfacet
   facet normal 0.000000e+00 -0.000000e+00 1.000000e+00
      outer loop
         vertex 3.246464e-03 -2.895284e-01 5.500000e-01
         vertex 1.476241e-02 -2.873465e-01 5.500000e-01
         vertex 6.298440e-02 -5.404923e-02 5.500000e-01
      endloop
   endfacet
   facet normal 0.000000e+00 -0.000000e+00 1.000000e+00
      outer loop
         vertex 1.476241e-02 -2.873465e-01 5.500000e-01
         vertex 2.345789e-02 -2.808006e-01 5.500000e-01
         vertex 6.298440e-02 -5.404923e-02 5.500000e-01
      endloop
   endfacet
   facet normal 0.000000e+00 -0.000000e+00 1.000000e+00
      outer loop
         vertex 2.345789e-02 -2.808006e-01 5.500000e-01
         vertex 2.933272e-02 -2.698914e-01 5.500000e-01
         vertex 6.298440e-02 -5.404923e-02 5.500000e-01
      endloop
   endfacet
   facet normal 0.000000e+00 0.000000e+00 1.000000e+00
      outer loop
         vertex 2.933272e-02 -2.698914e-01 5.500000e-01
         vertex 1.094932e-01 -3.399879e-02 5.500000e-01
         vertex 6.298440e-02 -5.404923e-02 5.500000e-01
      endloop
   endfacet
   facet normal 0.000000e+00 0.000000e+00 1.000000e+00
      outer loop
         vertex 1.094932e-01 -3.399879e-02 5.500000e-01
         vertex 1.110458e-01 -2.308919e-02 5.500000e-01
         vertex 6.298440e-02 -5.404923e-02 5.500000e-01
      endloop
   endfacet
   facet normal 0.000000e+00 0.000000e+00 1.000000e+00
      outer loop
         vertex 6.298440e-02 -5.404923e-02 5.500000e-01
         vertex 1.110458e-01 -2.308919e-02 5.500000e-01
         vertex -1.435218e-04 -1.436173e-02 5.500000e-01
      endloop
   endfacet
   facet normal 0.000000e+00 0.000000e+00 1.000000e+00
      outer loop
         vertex 1.110458e-01 -2.308919e-02 5.500000e-01
         vertex 1.068288e-01 -1.654350e-02 5.500000e-01
         vertex -1.435218e-04 -1.436173e-02 5.500000e-01
      endloop
   endfacet
   facet normal 0.000000e+00 0.000000e+00 1.000000e+00
      outer loop
         vertex -1.435218e-04 -1.436173e-02 5.500000e-01
         vertex 1.068288e-01 -1.654350e-02 5.500000e-01
         vertex 9.684280e-02 -1.436173e-02 5.500000e-01
      endloop
   endfacet
   facet normal 0.000000e+00 0.000000e+00 -1.000000e+00
      outer loop
         vertex 5.000000e-01 -5.000000e-01 -5.000000e-01
         vertex -5.000000e-01 -5.000000e-01 -5.000000e-01
         vertex -5.000000e-01 5.000000e-01 -5.000000e-01
      endloop
   endfacet
   facet normal 0.000000e+00 0.000000e+00 -1.000000e+00
      outer loop
         vertex 5.000000e-01 5.000000e-01 -5.000000e-01
         vertex 5.000000e-01 -5.000000e-01 -5.000000e-01
         vertex -5.000000e-01 5.000000e-01 -5.000000e-01
      endloop
   endfacet
endsolid
